<svg width="413" height="162" viewBox="0 0 413 162" fill="none" xmlns="http://www.w3.org/2000/svg">
<path d="M154.119 17V6.81818H155.655V11.2429H160.731V6.81818H162.272V17H160.731V12.5604H155.655V17H154.119ZM167.607 17.1541C166.891 17.1541 166.266 16.9901 165.732 16.6619C165.199 16.3338 164.784 15.8748 164.489 15.2848C164.194 14.6948 164.047 14.0054 164.047 13.2166C164.047 12.4245 164.194 11.7318 164.489 11.1385C164.784 10.5452 165.199 10.0845 165.732 9.75639C166.266 9.42827 166.891 9.2642 167.607 9.2642C168.322 9.2642 168.947 9.42827 169.481 9.75639C170.014 10.0845 170.429 10.5452 170.724 11.1385C171.019 11.7318 171.166 12.4245 171.166 13.2166C171.166 14.0054 171.019 14.6948 170.724 15.2848C170.429 15.8748 170.014 16.3338 169.481 16.6619C168.947 16.9901 168.322 17.1541 167.607 17.1541ZM167.612 15.9062C168.076 15.9062 168.46 15.7836 168.765 15.5384C169.07 15.2931 169.295 14.9666 169.441 14.5589C169.59 14.1513 169.665 13.7022 169.665 13.2116C169.665 12.7244 169.59 12.277 169.441 11.8693C169.295 11.4583 169.07 11.1286 168.765 10.88C168.46 10.6314 168.076 10.5071 167.612 10.5071C167.144 10.5071 166.756 10.6314 166.448 10.88C166.143 11.1286 165.916 11.4583 165.767 11.8693C165.621 12.277 165.548 12.7244 165.548 13.2116C165.548 13.7022 165.621 14.1513 165.767 14.5589C165.916 14.9666 166.143 15.2931 166.448 15.5384C166.756 15.7836 167.144 15.9062 167.612 15.9062ZM172.825 17V9.36364H174.252V10.6065H174.347C174.506 10.1856 174.766 9.85748 175.127 9.62216C175.489 9.38352 175.921 9.2642 176.425 9.2642C176.935 9.2642 177.363 9.38352 177.708 9.62216C178.056 9.8608 178.312 10.1889 178.478 10.6065H178.558C178.74 10.1989 179.03 9.87405 179.428 9.6321C179.825 9.38684 180.299 9.2642 180.85 9.2642C181.542 9.2642 182.107 9.4813 182.545 9.91548C182.986 10.3497 183.206 11.0043 183.206 11.8793V17H181.72V12.0185C181.72 11.5014 181.579 11.1269 181.297 10.8949C181.015 10.6629 180.679 10.5469 180.288 10.5469C179.804 10.5469 179.428 10.696 179.159 10.9943C178.891 11.2893 178.757 11.6688 178.757 12.1328V17H177.275V11.924C177.275 11.5097 177.146 11.1766 176.887 10.9247C176.629 10.6728 176.292 10.5469 175.878 10.5469C175.596 10.5469 175.336 10.6214 175.097 10.7706C174.862 10.9164 174.672 11.1203 174.526 11.3821C174.383 11.6439 174.312 11.9472 174.312 12.2919V17H172.825ZM188.49 17.1541C187.737 17.1541 187.089 16.9934 186.546 16.6719C186.006 16.3471 185.588 15.8913 185.293 15.3047C185.001 14.7147 184.855 14.0237 184.855 13.2315C184.855 12.4493 185.001 11.7599 185.293 11.1634C185.588 10.5668 185.999 10.1011 186.526 9.76633C187.056 9.43158 187.676 9.2642 188.385 9.2642C188.816 9.2642 189.234 9.33546 189.638 9.47798C190.042 9.6205 190.405 9.84422 190.727 10.1491C191.048 10.4541 191.302 10.8501 191.488 11.3374C191.673 11.8213 191.766 12.4096 191.766 13.1023V13.6293H185.696V12.5156H190.309C190.309 12.1245 190.23 11.7782 190.071 11.4766C189.912 11.1716 189.688 10.9313 189.4 10.7557C189.114 10.58 188.78 10.4922 188.395 10.4922C187.978 10.4922 187.613 10.5949 187.301 10.8004C186.993 11.0026 186.755 11.2678 186.586 11.5959C186.42 11.9207 186.337 12.2737 186.337 12.6548V13.5249C186.337 14.0353 186.426 14.4695 186.605 14.8274C186.788 15.1854 187.041 15.4588 187.366 15.6477C187.691 15.8333 188.07 15.9261 188.505 15.9261C188.786 15.9261 189.043 15.8864 189.275 15.8068C189.507 15.724 189.708 15.6013 189.877 15.4389C190.046 15.2765 190.175 15.076 190.265 14.8374L191.672 15.0909C191.559 15.5052 191.357 15.8681 191.065 16.1797C190.777 16.4879 190.414 16.7282 189.976 16.9006C189.542 17.0696 189.047 17.1541 188.49 17.1541Z" fill="#605F5F"/>
<path d="M201.584 9L204.584 12L201.584 15" stroke="#605F5F" stroke-width="0.75" stroke-linecap="round" stroke-linejoin="round"/>
<path d="M231.672 9.4929C231.619 9.02225 231.4 8.65767 231.016 8.39915C230.631 8.13731 230.147 8.00639 229.564 8.00639C229.146 8.00639 228.785 8.07268 228.48 8.20526C228.175 8.33452 227.938 8.51349 227.769 8.74219C227.603 8.96757 227.521 9.22443 227.521 9.51278C227.521 9.75473 227.577 9.96354 227.69 10.1392C227.806 10.3149 227.956 10.4624 228.142 10.5817C228.331 10.6977 228.533 10.7955 228.749 10.875C228.964 10.9512 229.171 11.0142 229.37 11.0639L230.364 11.3224C230.689 11.402 231.022 11.5097 231.364 11.6456C231.705 11.7815 232.022 11.9605 232.313 12.1825C232.605 12.4046 232.84 12.6797 233.019 13.0078C233.201 13.3359 233.293 13.7287 233.293 14.1861C233.293 14.7628 233.143 15.2749 232.845 15.7223C232.55 16.1697 232.121 16.5227 231.558 16.7812C230.997 17.0398 230.32 17.169 229.524 17.169C228.762 17.169 228.102 17.0481 227.545 16.8061C226.989 16.5642 226.553 16.2211 226.238 15.777C225.923 15.3295 225.749 14.7992 225.716 14.1861H227.257C227.287 14.554 227.406 14.8606 227.615 15.1058C227.827 15.3478 228.097 15.5284 228.425 15.6477C228.757 15.7637 229.12 15.8217 229.514 15.8217C229.948 15.8217 230.335 15.7538 230.673 15.6179C231.014 15.4787 231.282 15.2865 231.478 15.0412C231.674 14.7926 231.771 14.5026 231.771 14.1712C231.771 13.8696 231.685 13.6226 231.513 13.4304C231.344 13.2382 231.113 13.0791 230.822 12.9531C230.533 12.8272 230.207 12.7161 229.842 12.62L228.639 12.2919C227.824 12.0698 227.178 11.7434 226.7 11.3125C226.226 10.8816 225.989 10.3116 225.989 9.60227C225.989 9.01562 226.148 8.50355 226.467 8.06605C226.785 7.62855 227.216 7.28883 227.759 7.04688C228.303 6.80161 228.916 6.67898 229.599 6.67898C230.288 6.67898 230.896 6.79995 231.423 7.0419C231.954 7.28385 232.371 7.61695 232.676 8.04119C232.981 8.46212 233.14 8.94602 233.153 9.4929H231.672ZM236.496 12.4659V17H235.009V6.81818H236.476V10.6065H236.57C236.749 10.1955 237.023 9.86908 237.39 9.62713C237.758 9.38518 238.239 9.2642 238.832 9.2642C239.356 9.2642 239.813 9.37192 240.204 9.58736C240.599 9.80279 240.904 10.1243 241.119 10.5518C241.338 10.9761 241.447 11.5064 241.447 12.1428V17H239.961V12.3217C239.961 11.7616 239.817 11.3274 239.528 11.0192C239.24 10.7076 238.839 10.5518 238.325 10.5518C237.974 10.5518 237.659 10.6264 237.381 10.7756C237.105 10.9247 236.888 11.1435 236.729 11.4318C236.573 11.7169 236.496 12.0616 236.496 12.4659ZM246.648 17.1541C245.932 17.1541 245.307 16.9901 244.773 16.6619C244.24 16.3338 243.825 15.8748 243.53 15.2848C243.235 14.6948 243.088 14.0054 243.088 13.2166C243.088 12.4245 243.235 11.7318 243.53 11.1385C243.825 10.5452 244.24 10.0845 244.773 9.75639C245.307 9.42827 245.932 9.2642 246.648 9.2642C247.363 9.2642 247.988 9.42827 248.522 9.75639C249.055 10.0845 249.47 10.5452 249.765 11.1385C250.06 11.7318 250.207 12.4245 250.207 13.2166C250.207 14.0054 250.06 14.6948 249.765 15.2848C249.47 15.8748 249.055 16.3338 248.522 16.6619C247.988 16.9901 247.363 17.1541 246.648 17.1541ZM246.653 15.9062C247.117 15.9062 247.501 15.7836 247.806 15.5384C248.111 15.2931 248.336 14.9666 248.482 14.5589C248.631 14.1513 248.706 13.7022 248.706 13.2116C248.706 12.7244 248.631 12.277 248.482 11.8693C248.336 11.4583 248.111 11.1286 247.806 10.88C247.501 10.6314 247.117 10.5071 246.653 10.5071C246.185 10.5071 245.797 10.6314 245.489 10.88C245.184 11.1286 244.957 11.4583 244.808 11.8693C244.662 12.277 244.589 12.7244 244.589 13.2116C244.589 13.7022 244.662 14.1513 244.808 14.5589C244.957 14.9666 245.184 15.2931 245.489 15.5384C245.797 15.7836 246.185 15.9062 246.653 15.9062ZM251.866 19.8636V9.36364H253.318V10.6016H253.442C253.529 10.4425 253.653 10.2585 253.815 10.0497C253.978 9.84091 254.203 9.65862 254.491 9.50284C254.78 9.34375 255.161 9.2642 255.635 9.2642C256.251 9.2642 256.802 9.41998 257.286 9.73153C257.769 10.0431 258.149 10.4922 258.424 11.0788C258.702 11.6655 258.842 12.3714 258.842 13.1967C258.842 14.022 258.704 14.7296 258.429 15.3196C258.154 15.9062 257.776 16.3587 257.295 16.6768C256.815 16.9917 256.266 17.1491 255.65 17.1491C255.186 17.1491 254.806 17.0713 254.511 16.9155C254.22 16.7597 253.991 16.5774 253.825 16.3686C253.66 16.1598 253.532 15.9742 253.442 15.8118H253.353V19.8636H251.866ZM253.323 13.1818C253.323 13.7187 253.401 14.1894 253.557 14.5938C253.713 14.9981 253.938 15.3146 254.233 15.5433C254.528 15.7687 254.889 15.8814 255.317 15.8814C255.761 15.8814 256.132 15.7637 256.43 15.5284C256.729 15.2898 256.954 14.9666 257.107 14.5589C257.262 14.1513 257.34 13.6922 257.34 13.1818C257.34 12.678 257.264 12.2256 257.112 11.8246C256.962 11.4235 256.737 11.107 256.435 10.875C256.137 10.643 255.764 10.527 255.317 10.527C254.886 10.527 254.521 10.638 254.223 10.8601C253.928 11.0821 253.704 11.392 253.552 11.7898C253.399 12.1875 253.323 12.6515 253.323 13.1818Z" fill="#121212"/>
<path d="M80.916 96.378C78.396 96.378 76.128 95.946 74.112 95.082C72.096 94.182 70.512 92.922 69.36 91.302C68.208 89.682 67.632 87.792 67.632 85.632H74.22C74.364 87.252 74.994 88.584 76.11 89.628C77.262 90.672 78.864 91.194 80.916 91.194C83.04 91.194 84.696 90.69 85.884 89.682C87.072 88.638 87.666 87.306 87.666 85.686C87.666 84.426 87.288 83.4 86.532 82.608C85.812 81.816 84.894 81.204 83.778 80.772C82.698 80.34 81.186 79.872 79.242 79.368C76.794 78.72 74.796 78.072 73.248 77.424C71.736 76.74 70.44 75.696 69.36 74.292C68.28 72.888 67.74 71.016 67.74 68.676C67.74 66.516 68.28 64.626 69.36 63.006C70.44 61.386 71.952 60.144 73.896 59.28C75.84 58.416 78.09 57.984 80.646 57.984C84.282 57.984 87.252 58.902 89.556 60.738C91.896 62.538 93.192 65.022 93.444 68.19H86.64C86.532 66.822 85.884 65.652 84.696 64.68C83.508 63.708 81.942 63.222 79.998 63.222C78.234 63.222 76.794 63.672 75.678 64.572C74.562 65.472 74.004 66.768 74.004 68.46C74.004 69.612 74.346 70.566 75.03 71.322C75.75 72.042 76.65 72.618 77.73 73.05C78.81 73.482 80.286 73.95 82.158 74.454C84.642 75.138 86.658 75.822 88.206 76.506C89.79 77.19 91.122 78.252 92.202 79.692C93.318 81.096 93.876 82.986 93.876 85.362C93.876 87.27 93.354 89.07 92.31 90.762C91.302 92.454 89.808 93.822 87.828 94.866C85.884 95.874 83.58 96.378 80.916 96.378ZM115.53 65.76C117.798 65.76 119.814 66.246 121.578 67.218C123.378 68.19 124.782 69.63 125.79 71.538C126.834 73.446 127.356 75.75 127.356 78.45V96H121.254V79.368C121.254 76.704 120.588 74.67 119.256 73.266C117.924 71.826 116.106 71.106 113.802 71.106C111.498 71.106 109.662 71.826 108.294 73.266C106.962 74.67 106.296 76.704 106.296 79.368V96H100.14V56.04H106.296V69.702C107.34 68.442 108.654 67.47 110.238 66.786C111.858 66.102 113.622 65.76 115.53 65.76ZM147.114 96.486C144.306 96.486 141.768 95.856 139.5 94.596C137.232 93.3 135.45 91.5 134.154 89.196C132.858 86.856 132.21 84.156 132.21 81.096C132.21 78.072 132.876 75.39 134.208 73.05C135.54 70.71 137.358 68.91 139.662 67.65C141.966 66.39 144.54 65.76 147.384 65.76C150.228 65.76 152.802 66.39 155.106 67.65C157.41 68.91 159.228 70.71 160.56 73.05C161.892 75.39 162.558 78.072 162.558 81.096C162.558 84.12 161.874 86.802 160.506 89.142C159.138 91.482 157.266 93.3 154.89 94.596C152.55 95.856 149.958 96.486 147.114 96.486ZM147.114 91.14C148.698 91.14 150.174 90.762 151.542 90.006C152.946 89.25 154.08 88.116 154.944 86.604C155.808 85.092 156.24 83.256 156.24 81.096C156.24 78.936 155.826 77.118 154.998 75.642C154.17 74.13 153.072 72.996 151.704 72.24C150.336 71.484 148.86 71.106 147.276 71.106C145.692 71.106 144.216 71.484 142.848 72.24C141.516 72.996 140.454 74.13 139.662 75.642C138.87 77.118 138.474 78.936 138.474 81.096C138.474 84.3 139.284 86.784 140.904 88.548C142.56 90.276 144.63 91.14 147.114 91.14ZM173.8 70.62C174.844 69.252 176.266 68.1 178.066 67.164C179.866 66.228 181.9 65.76 184.168 65.76C186.76 65.76 189.118 66.408 191.242 67.704C193.402 68.964 195.094 70.746 196.318 73.05C197.542 75.354 198.154 78 198.154 80.988C198.154 83.976 197.542 86.658 196.318 89.034C195.094 91.374 193.402 93.21 191.242 94.542C189.118 95.838 186.76 96.486 184.168 96.486C181.9 96.486 179.884 96.036 178.12 95.136C176.356 94.2 174.916 93.048 173.8 91.68V110.148H167.644V66.246H173.8V70.62ZM191.89 80.988C191.89 78.936 191.458 77.172 190.594 75.696C189.766 74.184 188.65 73.05 187.246 72.294C185.878 71.502 184.402 71.106 182.818 71.106C181.27 71.106 179.794 71.502 178.39 72.294C177.022 73.086 175.906 74.238 175.042 75.75C174.214 77.262 173.8 79.044 173.8 81.096C173.8 83.148 174.214 84.948 175.042 86.496C175.906 88.008 177.022 89.16 178.39 89.952C179.794 90.744 181.27 91.14 182.818 91.14C184.402 91.14 185.878 90.744 187.246 89.952C188.65 89.124 189.766 87.936 190.594 86.388C191.458 84.84 191.89 83.04 191.89 80.988ZM242.513 69.648C242.513 71.556 242.063 73.356 241.163 75.048C240.263 76.74 238.823 78.126 236.843 79.206C234.863 80.25 232.325 80.772 229.229 80.772H222.425V96H216.269V58.47H229.229C232.109 58.47 234.539 58.974 236.519 59.982C238.535 60.954 240.029 62.286 241.001 63.978C242.009 65.67 242.513 67.56 242.513 69.648ZM229.229 75.75C231.569 75.75 233.315 75.228 234.467 74.184C235.619 73.104 236.195 71.592 236.195 69.648C236.195 65.544 233.873 63.492 229.229 63.492H222.425V75.75H229.229ZM245.332 80.988C245.332 78 245.944 75.354 247.168 73.05C248.428 70.746 250.12 68.964 252.244 67.704C254.404 66.408 256.78 65.76 259.372 65.76C261.712 65.76 263.746 66.228 265.474 67.164C267.238 68.064 268.642 69.198 269.686 70.566V66.246H275.896V96H269.686V91.572C268.642 92.976 267.22 94.146 265.42 95.082C263.62 96.018 261.568 96.486 259.264 96.486C256.708 96.486 254.368 95.838 252.244 94.542C250.12 93.21 248.428 91.374 247.168 89.034C245.944 86.658 245.332 83.976 245.332 80.988ZM269.686 81.096C269.686 79.044 269.254 77.262 268.39 75.75C267.562 74.238 266.464 73.086 265.096 72.294C263.728 71.502 262.252 71.106 260.668 71.106C259.084 71.106 257.608 71.502 256.24 72.294C254.872 73.05 253.756 74.184 252.892 75.696C252.064 77.172 251.65 78.936 251.65 80.988C251.65 83.04 252.064 84.84 252.892 86.388C253.756 87.936 254.872 89.124 256.24 89.952C257.644 90.744 259.12 91.14 260.668 91.14C262.252 91.14 263.728 90.744 265.096 89.952C266.464 89.16 267.562 88.008 268.39 86.496C269.254 84.948 269.686 83.148 269.686 81.096ZM294.97 65.76C297.274 65.76 299.308 66.228 301.072 67.164C302.872 68.064 304.276 69.198 305.284 70.566V66.246H311.494V96.486C311.494 99.222 310.918 101.652 309.766 103.776C308.614 105.936 306.94 107.628 304.744 108.852C302.584 110.076 299.992 110.688 296.968 110.688C292.936 110.688 289.588 109.734 286.924 107.826C284.26 105.954 282.748 103.398 282.388 100.158H288.49C288.958 101.706 289.948 102.948 291.46 103.884C293.008 104.856 294.844 105.342 296.968 105.342C299.452 105.342 301.45 104.586 302.962 103.074C304.51 101.562 305.284 99.366 305.284 96.486V91.518C304.24 92.922 302.818 94.11 301.018 95.082C299.254 96.018 297.238 96.486 294.97 96.486C292.378 96.486 290.002 95.838 287.842 94.542C285.718 93.21 284.026 91.374 282.766 89.034C281.542 86.658 280.93 83.976 280.93 80.988C280.93 78 281.542 75.354 282.766 73.05C284.026 70.746 285.718 68.964 287.842 67.704C290.002 66.408 292.378 65.76 294.97 65.76ZM305.284 81.096C305.284 79.044 304.852 77.262 303.988 75.75C303.16 74.238 302.062 73.086 300.694 72.294C299.326 71.502 297.85 71.106 296.266 71.106C294.682 71.106 293.206 71.502 291.838 72.294C290.47 73.05 289.354 74.184 288.49 75.696C287.662 77.172 287.248 78.936 287.248 80.988C287.248 83.04 287.662 84.84 288.49 86.388C289.354 87.936 290.47 89.124 291.838 89.952C293.242 90.744 294.718 91.14 296.266 91.14C297.85 91.14 299.326 90.744 300.694 89.952C302.062 89.16 303.16 88.008 303.988 86.496C304.852 84.948 305.284 83.148 305.284 81.096ZM345.849 80.394C345.849 81.51 345.777 82.518 345.633 83.418H322.899C323.079 85.794 323.961 87.702 325.545 89.142C327.129 90.582 329.073 91.302 331.377 91.302C334.689 91.302 337.029 89.916 338.397 87.144H345.039C344.139 89.88 342.501 92.13 340.125 93.894C337.785 95.622 334.869 96.486 331.377 96.486C328.533 96.486 325.977 95.856 323.709 94.596C321.477 93.3 319.713 91.5 318.417 89.196C317.157 86.856 316.527 84.156 316.527 81.096C316.527 78.036 317.139 75.354 318.363 73.05C319.623 70.71 321.369 68.91 323.601 67.65C325.869 66.39 328.461 65.76 331.377 65.76C334.185 65.76 336.687 66.372 338.883 67.596C341.079 68.82 342.789 70.548 344.013 72.78C345.237 74.976 345.849 77.514 345.849 80.394ZM339.423 78.45C339.387 76.182 338.577 74.364 336.993 72.996C335.409 71.628 333.447 70.944 331.107 70.944C328.983 70.944 327.165 71.628 325.653 72.996C324.141 74.328 323.241 76.146 322.953 78.45H339.423Z" fill="black"/>
<path d="M1.85511 153V138.455H3.61648V151.438H10.3778V153H1.85511ZM17.4517 153.227C16.4006 153.227 15.4938 152.995 14.7315 152.531C13.974 152.062 13.3892 151.409 12.9773 150.571C12.5701 149.728 12.3665 148.748 12.3665 147.631C12.3665 146.513 12.5701 145.528 12.9773 144.676C13.3892 143.819 13.9621 143.152 14.696 142.673C15.4347 142.19 16.2964 141.949 17.2812 141.949C17.8494 141.949 18.4105 142.044 18.9645 142.233C19.5185 142.422 20.0227 142.73 20.4773 143.156C20.9318 143.578 21.294 144.136 21.5639 144.832C21.8338 145.528 21.9688 146.385 21.9688 147.403V148.114H13.5597V146.665H20.2642C20.2642 146.049 20.1411 145.5 19.8949 145.017C19.6534 144.534 19.3078 144.153 18.858 143.874C18.4129 143.594 17.8873 143.455 17.2812 143.455C16.6136 143.455 16.036 143.62 15.5483 143.952C15.0653 144.278 14.6937 144.705 14.4332 145.23C14.1728 145.756 14.0426 146.319 14.0426 146.92V147.886C14.0426 148.71 14.1847 149.409 14.4688 149.982C14.7576 150.55 15.1577 150.983 15.669 151.281C16.1804 151.575 16.7746 151.722 17.4517 151.722C17.892 151.722 18.2898 151.66 18.6449 151.537C19.0047 151.409 19.3149 151.22 19.5753 150.969C19.8357 150.713 20.0369 150.396 20.179 150.017L21.7983 150.472C21.6278 151.021 21.3414 151.504 20.9389 151.92C20.5365 152.332 20.0393 152.654 19.4474 152.886C18.8556 153.114 18.1903 153.227 17.4517 153.227ZM29.2628 142.091V143.511H23.6094V142.091H29.2628ZM25.2571 139.477H26.9332V149.875C26.9332 150.348 27.0019 150.704 27.1392 150.94C27.2813 151.172 27.4612 151.329 27.679 151.409C27.9015 151.485 28.1359 151.523 28.3821 151.523C28.5668 151.523 28.7183 151.513 28.8366 151.494C28.955 151.471 29.0497 151.452 29.1207 151.438L29.4616 152.943C29.348 152.986 29.1894 153.028 28.9858 153.071C28.7822 153.118 28.5241 153.142 28.2116 153.142C27.7382 153.142 27.2741 153.04 26.8196 152.837C26.3698 152.633 25.9957 152.323 25.6974 151.906C25.4039 151.49 25.2571 150.964 25.2571 150.33V139.477ZM33.8278 138.455V139.733C33.8278 140.121 33.7567 140.536 33.6147 140.976C33.4774 141.411 33.2738 141.835 33.0039 142.247C32.7388 142.654 32.4168 143.009 32.038 143.312L31.1289 142.574C31.4272 142.148 31.6853 141.705 31.9031 141.246C32.1256 140.782 32.2369 140.287 32.2369 139.761V138.455H33.8278ZM42.2262 144.534L40.7205 144.96C40.6258 144.709 40.4862 144.465 40.3015 144.229C40.1216 143.987 39.8754 143.788 39.5629 143.632C39.2504 143.476 38.8503 143.398 38.3626 143.398C37.695 143.398 37.1386 143.552 36.6935 143.859C36.2532 144.162 36.033 144.548 36.033 145.017C36.033 145.434 36.1845 145.763 36.4876 146.004C36.7906 146.246 37.2641 146.447 37.908 146.608L39.5273 147.006C40.5027 147.242 41.2295 147.605 41.7077 148.092C42.186 148.575 42.4251 149.198 42.4251 149.96C42.4251 150.585 42.2451 151.144 41.8853 151.636C41.5302 152.129 41.033 152.517 40.3938 152.801C39.7546 153.085 39.0112 153.227 38.1637 153.227C37.051 153.227 36.1301 152.986 35.4009 152.503C34.6718 152.02 34.2101 151.314 34.016 150.386L35.6069 149.989C35.7584 150.576 36.0449 151.016 36.4663 151.31C36.8924 151.603 37.4487 151.75 38.1353 151.75C38.9165 151.75 39.5368 151.584 39.9961 151.253C40.4601 150.917 40.6921 150.514 40.6921 150.045C40.6921 149.667 40.5595 149.349 40.2944 149.094C40.0292 148.833 39.622 148.639 39.0728 148.511L37.2546 148.085C36.2556 147.848 35.5217 147.482 35.0529 146.984C34.5889 146.482 34.3569 145.855 34.3569 145.102C34.3569 144.487 34.5297 143.942 34.8754 143.469C35.2257 142.995 35.7016 142.624 36.3029 142.354C36.909 142.084 37.5955 141.949 38.3626 141.949C39.4421 141.949 40.2897 142.186 40.9052 142.659C41.5254 143.133 41.9658 143.758 42.2262 144.534ZM54.6925 153.227C53.7834 153.227 52.9808 152.998 52.2848 152.538C51.5888 152.074 51.0443 151.421 50.6513 150.578C50.2583 149.731 50.0618 148.729 50.0618 147.574C50.0618 146.428 50.2583 145.434 50.6513 144.591C51.0443 143.748 51.5911 143.097 52.2919 142.638C52.9927 142.179 53.8023 141.949 54.7209 141.949C55.4311 141.949 55.9922 142.067 56.4041 142.304C56.8208 142.536 57.138 142.801 57.3558 143.099C57.5784 143.393 57.7512 143.634 57.8743 143.824H58.0163V138.455H59.6925V153H58.0732V151.324H57.8743C57.7512 151.523 57.576 151.774 57.3487 152.077C57.1214 152.375 56.7971 152.643 56.3757 152.879C55.9543 153.111 55.3932 153.227 54.6925 153.227ZM54.9197 151.722C55.5921 151.722 56.1603 151.546 56.6243 151.196C57.0883 150.841 57.4411 150.351 57.6825 149.726C57.924 149.096 58.0447 148.369 58.0447 147.545C58.0447 146.731 57.9264 146.018 57.6896 145.408C57.4529 144.792 57.1025 144.314 56.6385 143.973C56.1745 143.627 55.6016 143.455 54.9197 143.455C54.2095 143.455 53.6177 143.637 53.1442 144.001C52.6754 144.361 52.3227 144.851 52.0859 145.472C51.8539 146.087 51.7379 146.778 51.7379 147.545C51.7379 148.322 51.8563 149.027 52.093 149.662C52.3345 150.292 52.6896 150.794 53.1584 151.168C53.6319 151.537 54.219 151.722 54.9197 151.722ZM67.5689 153.227C66.5178 153.227 65.611 152.995 64.8487 152.531C64.0911 152.062 63.5064 151.409 63.0945 150.571C62.6873 149.728 62.4837 148.748 62.4837 147.631C62.4837 146.513 62.6873 145.528 63.0945 144.676C63.5064 143.819 64.0793 143.152 64.8132 142.673C65.5518 142.19 66.4136 141.949 67.3984 141.949C67.9666 141.949 68.5277 142.044 69.0817 142.233C69.6357 142.422 70.1399 142.73 70.5945 143.156C71.049 143.578 71.4112 144.136 71.6811 144.832C71.951 145.528 72.0859 146.385 72.0859 147.403V148.114H63.6768V146.665H70.3814C70.3814 146.049 70.2583 145.5 70.0121 145.017C69.7706 144.534 69.425 144.153 68.9751 143.874C68.5301 143.594 68.0045 143.455 67.3984 143.455C66.7308 143.455 66.1532 143.62 65.6655 143.952C65.1825 144.278 64.8108 144.705 64.5504 145.23C64.29 145.756 64.1598 146.319 64.1598 146.92V147.886C64.1598 148.71 64.3018 149.409 64.5859 149.982C64.8748 150.55 65.2749 150.983 65.7862 151.281C66.2976 151.575 66.8918 151.722 67.5689 151.722C68.0092 151.722 68.407 151.66 68.7621 151.537C69.1219 151.409 69.4321 151.22 69.6925 150.969C69.9529 150.713 70.1541 150.396 70.2962 150.017L71.9155 150.472C71.745 151.021 71.4586 151.504 71.0561 151.92C70.6536 152.332 70.1565 152.654 69.5646 152.886C68.9728 153.114 68.3075 153.227 67.5689 153.227ZM82.3629 144.534L80.8572 144.96C80.7625 144.709 80.6229 144.465 80.4382 144.229C80.2583 143.987 80.0121 143.788 79.6996 143.632C79.3871 143.476 78.987 143.398 78.4993 143.398C77.8317 143.398 77.2753 143.552 76.8303 143.859C76.3899 144.162 76.1697 144.548 76.1697 145.017C76.1697 145.434 76.3213 145.763 76.6243 146.004C76.9273 146.246 77.4008 146.447 78.0447 146.608L79.6641 147.006C80.6394 147.242 81.3662 147.605 81.8445 148.092C82.3227 148.575 82.5618 149.198 82.5618 149.96C82.5618 150.585 82.3819 151.144 82.022 151.636C81.6669 152.129 81.1697 152.517 80.5305 152.801C79.8913 153.085 79.148 153.227 78.3004 153.227C77.1877 153.227 76.2668 152.986 75.5376 152.503C74.8085 152.02 74.3468 151.314 74.1527 150.386L75.7436 149.989C75.8951 150.576 76.1816 151.016 76.603 151.31C77.0291 151.603 77.5855 151.75 78.272 151.75C79.0533 151.75 79.6735 151.584 80.1328 151.253C80.5968 150.917 80.8288 150.514 80.8288 150.045C80.8288 149.667 80.6963 149.349 80.4311 149.094C80.166 148.833 79.7588 148.639 79.2095 148.511L77.3913 148.085C76.3923 147.848 75.6584 147.482 75.1896 146.984C74.7256 146.482 74.4936 145.855 74.4936 145.102C74.4936 144.487 74.6664 143.942 75.0121 143.469C75.3625 142.995 75.8383 142.624 76.4396 142.354C77.0457 142.084 77.7322 141.949 78.4993 141.949C79.5788 141.949 80.4264 142.186 81.0419 142.659C81.6622 143.133 82.1025 143.758 82.3629 144.534ZM85.0849 153V142.091H86.761V153H85.0849ZM85.9371 140.273C85.6104 140.273 85.3287 140.161 85.092 139.939C84.86 139.716 84.744 139.449 84.744 139.136C84.744 138.824 84.86 138.556 85.092 138.334C85.3287 138.111 85.6104 138 85.9371 138C86.2638 138 86.5432 138.111 86.7752 138.334C87.012 138.556 87.1303 138.824 87.1303 139.136C87.1303 139.449 87.012 139.716 86.7752 139.939C86.5432 140.161 86.2638 140.273 85.9371 140.273ZM94.2344 157.318C93.4247 157.318 92.7287 157.214 92.1463 157.006C91.5639 156.802 91.0786 156.532 90.6903 156.196C90.3068 155.865 90.0014 155.509 89.7741 155.131L91.1094 154.193C91.2609 154.392 91.4527 154.619 91.6847 154.875C91.9167 155.135 92.2339 155.36 92.6364 155.55C93.0436 155.744 93.5762 155.841 94.2344 155.841C95.1151 155.841 95.8419 155.628 96.4148 155.202C96.9877 154.776 97.2741 154.108 97.2741 153.199V150.983H97.1321C97.009 151.182 96.8338 151.428 96.6065 151.722C96.384 152.01 96.062 152.268 95.6406 152.496C95.224 152.718 94.6605 152.83 93.9503 152.83C93.0696 152.83 92.2789 152.621 91.5781 152.205C90.8821 151.788 90.3305 151.182 89.9233 150.386C89.5208 149.591 89.3196 148.625 89.3196 147.489C89.3196 146.371 89.5161 145.398 89.9091 144.57C90.3021 143.736 90.849 143.092 91.5497 142.638C92.2505 142.179 93.0601 141.949 93.9787 141.949C94.6889 141.949 95.2524 142.067 95.669 142.304C96.0904 142.536 96.4124 142.801 96.6349 143.099C96.8622 143.393 97.0374 143.634 97.1605 143.824H97.331V142.091H98.9503V153.312C98.9503 154.25 98.7372 155.012 98.3111 155.599C97.8897 156.191 97.3215 156.625 96.6065 156.899C95.8963 157.179 95.1056 157.318 94.2344 157.318ZM94.1776 151.324C94.8499 151.324 95.4181 151.17 95.8821 150.862C96.3461 150.554 96.6989 150.112 96.9403 149.534C97.1818 148.956 97.3026 148.265 97.3026 147.46C97.3026 146.674 97.1842 145.981 96.9474 145.379C96.7107 144.778 96.3603 144.307 95.8963 143.966C95.4323 143.625 94.8594 143.455 94.1776 143.455C93.4673 143.455 92.8755 143.634 92.402 143.994C91.9332 144.354 91.5805 144.837 91.3438 145.443C91.1117 146.049 90.9957 146.722 90.9957 147.46C90.9957 148.218 91.1141 148.888 91.3509 149.47C91.5923 150.048 91.9474 150.502 92.4162 150.834C92.8897 151.161 93.4768 151.324 94.1776 151.324ZM103.695 146.438V153H102.018V142.091H103.638V143.795H103.78C104.036 143.241 104.424 142.796 104.945 142.46C105.465 142.119 106.138 141.949 106.962 141.949C107.7 141.949 108.347 142.1 108.901 142.403C109.455 142.702 109.885 143.156 110.193 143.767C110.501 144.373 110.655 145.14 110.655 146.068V153H108.979V146.182C108.979 145.325 108.756 144.657 108.311 144.179C107.866 143.696 107.255 143.455 106.479 143.455C105.944 143.455 105.465 143.571 105.044 143.803C104.627 144.035 104.298 144.373 104.057 144.818C103.815 145.263 103.695 145.803 103.695 146.438ZM124.087 142.091V143.511H118.434V142.091H124.087ZM120.081 139.477H121.757V149.875C121.757 150.348 121.826 150.704 121.963 150.94C122.105 151.172 122.285 151.329 122.503 151.409C122.726 151.485 122.96 151.523 123.206 151.523C123.391 151.523 123.542 151.513 123.661 151.494C123.779 151.471 123.874 151.452 123.945 151.438L124.286 152.943C124.172 152.986 124.014 153.028 123.81 153.071C123.606 153.118 123.348 153.142 123.036 153.142C122.562 153.142 122.098 153.04 121.644 152.837C121.194 152.633 120.82 152.323 120.522 151.906C120.228 151.49 120.081 150.964 120.081 150.33V139.477ZM128.519 146.438V153H126.843V138.455H128.519V143.795H128.661C128.917 143.232 129.3 142.785 129.811 142.453C130.328 142.117 131.014 141.949 131.871 141.949C132.614 141.949 133.266 142.098 133.824 142.396C134.383 142.69 134.816 143.142 135.124 143.753C135.436 144.359 135.593 145.131 135.593 146.068V153H133.917V146.182C133.917 145.315 133.692 144.645 133.242 144.172C132.797 143.694 132.179 143.455 131.388 143.455C130.839 143.455 130.346 143.571 129.911 143.803C129.48 144.035 129.139 144.373 128.888 144.818C128.642 145.263 128.519 145.803 128.519 146.438ZM143.233 153.227C142.182 153.227 141.275 152.995 140.513 152.531C139.755 152.062 139.17 151.409 138.759 150.571C138.351 149.728 138.148 148.748 138.148 147.631C138.148 146.513 138.351 145.528 138.759 144.676C139.17 143.819 139.743 143.152 140.477 142.673C141.216 142.19 142.078 141.949 143.062 141.949C143.631 141.949 144.192 142.044 144.746 142.233C145.3 142.422 145.804 142.73 146.259 143.156C146.713 143.578 147.075 144.136 147.345 144.832C147.615 145.528 147.75 146.385 147.75 147.403V148.114H139.341V146.665H146.045C146.045 146.049 145.922 145.5 145.676 145.017C145.435 144.534 145.089 144.153 144.639 143.874C144.194 143.594 143.669 143.455 143.062 143.455C142.395 143.455 141.817 143.62 141.33 143.952C140.847 144.278 140.475 144.705 140.214 145.23C139.954 145.756 139.824 146.319 139.824 146.92V147.886C139.824 148.71 139.966 149.409 140.25 149.982C140.539 150.55 140.939 150.983 141.45 151.281C141.962 151.575 142.556 151.722 143.233 151.722C143.673 151.722 144.071 151.66 144.426 151.537C144.786 151.409 145.096 151.22 145.357 150.969C145.617 150.713 145.818 150.396 145.96 150.017L147.58 150.472C147.409 151.021 147.123 151.504 146.72 151.92C146.318 152.332 145.821 152.654 145.229 152.886C144.637 153.114 143.972 153.227 143.233 153.227ZM155.925 157.091V142.091H157.544V143.824H157.743C157.866 143.634 158.036 143.393 158.254 143.099C158.477 142.801 158.794 142.536 159.206 142.304C159.623 142.067 160.186 141.949 160.896 141.949C161.815 141.949 162.625 142.179 163.325 142.638C164.026 143.097 164.573 143.748 164.966 144.591C165.359 145.434 165.555 146.428 165.555 147.574C165.555 148.729 165.359 149.731 164.966 150.578C164.573 151.421 164.028 152.074 163.332 152.538C162.636 152.998 161.834 153.227 160.925 153.227C160.224 153.227 159.663 153.111 159.241 152.879C158.82 152.643 158.496 152.375 158.268 152.077C158.041 151.774 157.866 151.523 157.743 151.324H157.601V157.091H155.925ZM157.572 147.545C157.572 148.369 157.693 149.096 157.935 149.726C158.176 150.351 158.529 150.841 158.993 151.196C159.457 151.546 160.025 151.722 160.697 151.722C161.398 151.722 161.983 151.537 162.452 151.168C162.925 150.794 163.28 150.292 163.517 149.662C163.759 149.027 163.879 148.322 163.879 147.545C163.879 146.778 163.761 146.087 163.524 145.472C163.292 144.851 162.939 144.361 162.466 144.001C161.997 143.637 161.408 143.455 160.697 143.455C160.016 143.455 159.443 143.627 158.979 143.973C158.515 144.314 158.164 144.792 157.928 145.408C157.691 146.018 157.572 146.731 157.572 147.545ZM169.788 138.455V153H168.112V138.455H169.788ZM176.069 153.256C175.377 153.256 174.75 153.125 174.186 152.865C173.623 152.6 173.176 152.219 172.844 151.722C172.513 151.22 172.347 150.614 172.347 149.903C172.347 149.278 172.47 148.772 172.716 148.384C172.962 147.991 173.292 147.683 173.703 147.46C174.115 147.238 174.57 147.072 175.067 146.963C175.569 146.849 176.073 146.759 176.58 146.693C177.243 146.608 177.78 146.544 178.192 146.501C178.609 146.454 178.912 146.376 179.101 146.267C179.295 146.158 179.392 145.969 179.392 145.699V145.642C179.392 144.941 179.201 144.397 178.817 144.009C178.438 143.62 177.863 143.426 177.091 143.426C176.291 143.426 175.664 143.601 175.209 143.952C174.755 144.302 174.435 144.676 174.25 145.074L172.659 144.506C172.944 143.843 173.322 143.327 173.796 142.957C174.274 142.583 174.795 142.323 175.358 142.176C175.926 142.025 176.485 141.949 177.034 141.949C177.385 141.949 177.787 141.991 178.242 142.077C178.701 142.157 179.144 142.325 179.57 142.581C180.001 142.837 180.358 143.223 180.642 143.739C180.926 144.255 181.069 144.946 181.069 145.812V153H179.392V151.523H179.307C179.194 151.759 179.004 152.013 178.739 152.283C178.474 152.553 178.121 152.782 177.681 152.972C177.24 153.161 176.703 153.256 176.069 153.256ZM176.324 151.75C176.987 151.75 177.546 151.62 178 151.359C178.46 151.099 178.805 150.763 179.037 150.351C179.274 149.939 179.392 149.506 179.392 149.051V147.517C179.321 147.602 179.165 147.68 178.924 147.751C178.687 147.818 178.412 147.877 178.1 147.929C177.792 147.976 177.491 148.019 177.198 148.057C176.909 148.09 176.675 148.118 176.495 148.142C176.059 148.199 175.652 148.291 175.273 148.419C174.899 148.542 174.596 148.729 174.364 148.98C174.137 149.226 174.023 149.562 174.023 149.989C174.023 150.571 174.239 151.011 174.669 151.31C175.105 151.603 175.657 151.75 176.324 151.75ZM188.56 153.227C187.537 153.227 186.656 152.986 185.918 152.503C185.179 152.02 184.611 151.355 184.213 150.507C183.815 149.66 183.616 148.691 183.616 147.602C183.616 146.494 183.82 145.517 184.227 144.669C184.639 143.817 185.212 143.152 185.946 142.673C186.685 142.19 187.546 141.949 188.531 141.949C189.298 141.949 189.99 142.091 190.605 142.375C191.221 142.659 191.725 143.057 192.118 143.568C192.511 144.08 192.755 144.676 192.849 145.358H191.173C191.045 144.861 190.761 144.42 190.321 144.037C189.885 143.649 189.298 143.455 188.56 143.455C187.906 143.455 187.333 143.625 186.841 143.966C186.353 144.302 185.972 144.778 185.697 145.393C185.428 146.004 185.293 146.722 185.293 147.545C185.293 148.388 185.425 149.122 185.69 149.747C185.96 150.372 186.339 150.857 186.827 151.203C187.319 151.549 187.897 151.722 188.56 151.722C188.995 151.722 189.391 151.646 189.746 151.494C190.101 151.343 190.402 151.125 190.648 150.841C190.894 150.557 191.069 150.216 191.173 149.818H192.849C192.755 150.462 192.52 151.042 192.146 151.558C191.777 152.07 191.287 152.477 190.676 152.78C190.07 153.078 189.365 153.227 188.56 153.227ZM199.874 153.227C198.822 153.227 197.916 152.995 197.153 152.531C196.396 152.062 195.811 151.409 195.399 150.571C194.992 149.728 194.788 148.748 194.788 147.631C194.788 146.513 194.992 145.528 195.399 144.676C195.811 143.819 196.384 143.152 197.118 142.673C197.857 142.19 198.718 141.949 199.703 141.949C200.271 141.949 200.832 142.044 201.386 142.233C201.94 142.422 202.445 142.73 202.899 143.156C203.354 143.578 203.716 144.136 203.986 144.832C204.256 145.528 204.391 146.385 204.391 147.403V148.114H195.982V146.665H202.686C202.686 146.049 202.563 145.5 202.317 145.017C202.075 144.534 201.73 144.153 201.28 143.874C200.835 143.594 200.309 143.455 199.703 143.455C199.036 143.455 198.458 143.62 197.97 143.952C197.487 144.278 197.116 144.705 196.855 145.23C196.595 145.756 196.464 146.319 196.464 146.92V147.886C196.464 148.71 196.607 149.409 196.891 149.982C197.179 150.55 197.58 150.983 198.091 151.281C198.602 151.575 199.196 151.722 199.874 151.722C200.314 151.722 200.712 151.66 201.067 151.537C201.427 151.409 201.737 151.22 201.997 150.969C202.258 150.713 202.459 150.396 202.601 150.017L204.22 150.472C204.05 151.021 203.763 151.504 203.361 151.92C202.958 152.332 202.461 152.654 201.869 152.886C201.277 153.114 200.612 153.227 199.874 153.227ZM213.645 157.091C213.361 157.091 213.107 157.067 212.885 157.02C212.662 156.977 212.509 156.935 212.423 156.892L212.849 155.415C213.257 155.519 213.616 155.557 213.929 155.528C214.241 155.5 214.518 155.36 214.76 155.109C215.006 154.863 215.231 154.463 215.435 153.909L215.747 153.057L211.713 142.091H213.531L216.543 150.784H216.656L219.668 142.091H221.486L216.855 154.591C216.647 155.154 216.389 155.621 216.081 155.99C215.773 156.364 215.416 156.641 215.009 156.821C214.606 157.001 214.152 157.091 213.645 157.091ZM227.739 153.227C226.754 153.227 225.89 152.993 225.147 152.524C224.408 152.055 223.831 151.4 223.414 150.557C223.002 149.714 222.796 148.729 222.796 147.602C222.796 146.466 223.002 145.474 223.414 144.626C223.831 143.779 224.408 143.121 225.147 142.652C225.89 142.183 226.754 141.949 227.739 141.949C228.724 141.949 229.586 142.183 230.325 142.652C231.068 143.121 231.646 143.779 232.058 144.626C232.474 145.474 232.683 146.466 232.683 147.602C232.683 148.729 232.474 149.714 232.058 150.557C231.646 151.4 231.068 152.055 230.325 152.524C229.586 152.993 228.724 153.227 227.739 153.227ZM227.739 151.722C228.487 151.722 229.103 151.53 229.586 151.146C230.069 150.763 230.426 150.259 230.658 149.634C230.89 149.009 231.006 148.331 231.006 147.602C231.006 146.873 230.89 146.194 230.658 145.564C230.426 144.934 230.069 144.425 229.586 144.037C229.103 143.649 228.487 143.455 227.739 143.455C226.991 143.455 226.376 143.649 225.893 144.037C225.41 144.425 225.052 144.934 224.82 145.564C224.588 146.194 224.472 146.873 224.472 147.602C224.472 148.331 224.588 149.009 224.82 149.634C225.052 150.259 225.41 150.763 225.893 151.146C226.376 151.53 226.991 151.722 227.739 151.722ZM242.116 148.54V142.091H243.792V153H242.116V151.153H242.002C241.747 151.707 241.349 152.179 240.809 152.567C240.27 152.95 239.588 153.142 238.764 153.142C238.082 153.142 237.476 152.993 236.946 152.695C236.415 152.392 235.999 151.937 235.696 151.331C235.393 150.72 235.241 149.951 235.241 149.023V142.091H236.917V148.909C236.917 149.705 237.14 150.339 237.585 150.812C238.035 151.286 238.608 151.523 239.304 151.523C239.72 151.523 240.144 151.416 240.575 151.203C241.011 150.99 241.375 150.663 241.669 150.223C241.967 149.783 242.116 149.222 242.116 148.54ZM255.697 153.256C255.006 153.256 254.379 153.125 253.815 152.865C253.252 152.6 252.804 152.219 252.473 151.722C252.142 151.22 251.976 150.614 251.976 149.903C251.976 149.278 252.099 148.772 252.345 148.384C252.591 147.991 252.92 147.683 253.332 147.46C253.744 147.238 254.199 147.072 254.696 146.963C255.198 146.849 255.702 146.759 256.209 146.693C256.872 146.608 257.409 146.544 257.821 146.501C258.238 146.454 258.541 146.376 258.73 146.267C258.924 146.158 259.021 145.969 259.021 145.699V145.642C259.021 144.941 258.83 144.397 258.446 144.009C258.067 143.62 257.492 143.426 256.72 143.426C255.92 143.426 255.293 143.601 254.838 143.952C254.384 144.302 254.064 144.676 253.879 145.074L252.288 144.506C252.572 143.843 252.951 143.327 253.425 142.957C253.903 142.583 254.424 142.323 254.987 142.176C255.555 142.025 256.114 141.949 256.663 141.949C257.014 141.949 257.416 141.991 257.871 142.077C258.33 142.157 258.773 142.325 259.199 142.581C259.63 142.837 259.987 143.223 260.271 143.739C260.555 144.255 260.697 144.946 260.697 145.812V153H259.021V151.523H258.936C258.822 151.759 258.633 152.013 258.368 152.283C258.103 152.553 257.75 152.782 257.31 152.972C256.869 153.161 256.332 153.256 255.697 153.256ZM255.953 151.75C256.616 151.75 257.175 151.62 257.629 151.359C258.089 151.099 258.434 150.763 258.666 150.351C258.903 149.939 259.021 149.506 259.021 149.051V147.517C258.95 147.602 258.794 147.68 258.553 147.751C258.316 147.818 258.041 147.877 257.729 147.929C257.421 147.976 257.12 148.019 256.827 148.057C256.538 148.09 256.304 148.118 256.124 148.142C255.688 148.199 255.281 148.291 254.902 148.419C254.528 148.542 254.225 148.729 253.993 148.98C253.766 149.226 253.652 149.562 253.652 149.989C253.652 150.571 253.867 151.011 254.298 151.31C254.734 151.603 255.286 151.75 255.953 151.75ZM265.433 138.455V153H263.757V138.455H265.433ZM270.974 153L267.651 142.091H269.412L271.77 150.443H271.884L274.213 142.091H276.003L278.304 150.415H278.418L280.776 142.091H282.537L279.213 153H277.565L275.179 144.619H275.009L272.622 153H270.974ZM287.963 153.256C287.272 153.256 286.644 153.125 286.081 152.865C285.518 152.6 285.07 152.219 284.739 151.722C284.407 151.22 284.241 150.614 284.241 149.903C284.241 149.278 284.365 148.772 284.611 148.384C284.857 147.991 285.186 147.683 285.598 147.46C286.01 147.238 286.464 147.072 286.962 146.963C287.464 146.849 287.968 146.759 288.474 146.693C289.137 146.608 289.675 146.544 290.087 146.501C290.503 146.454 290.806 146.376 290.996 146.267C291.19 146.158 291.287 145.969 291.287 145.699V145.642C291.287 144.941 291.095 144.397 290.712 144.009C290.333 143.62 289.758 143.426 288.986 143.426C288.186 143.426 287.558 143.601 287.104 143.952C286.649 144.302 286.33 144.676 286.145 145.074L284.554 144.506C284.838 143.843 285.217 143.327 285.69 142.957C286.169 142.583 286.689 142.323 287.253 142.176C287.821 142.025 288.38 141.949 288.929 141.949C289.279 141.949 289.682 141.991 290.136 142.077C290.596 142.157 291.038 142.325 291.464 142.581C291.895 142.837 292.253 143.223 292.537 143.739C292.821 144.255 292.963 144.946 292.963 145.812V153H291.287V151.523H291.202C291.088 151.759 290.899 152.013 290.634 152.283C290.368 152.553 290.016 152.782 289.575 152.972C289.135 153.161 288.598 153.256 287.963 153.256ZM288.219 151.75C288.882 151.75 289.44 151.62 289.895 151.359C290.354 151.099 290.7 150.763 290.932 150.351C291.169 149.939 291.287 149.506 291.287 149.051V147.517C291.216 147.602 291.06 147.68 290.818 147.751C290.581 147.818 290.307 147.877 289.994 147.929C289.687 147.976 289.386 148.019 289.092 148.057C288.804 148.09 288.569 148.118 288.389 148.142C287.954 148.199 287.546 148.291 287.168 148.419C286.794 148.542 286.491 148.729 286.259 148.98C286.031 149.226 285.918 149.562 285.918 149.989C285.918 150.571 286.133 151.011 286.564 151.31C287 151.603 287.551 151.75 288.219 151.75ZM296.711 157.091C296.427 157.091 296.174 157.067 295.951 157.02C295.729 156.977 295.575 156.935 295.49 156.892L295.916 155.415C296.323 155.519 296.683 155.557 296.995 155.528C297.308 155.5 297.585 155.36 297.826 155.109C298.073 154.863 298.297 154.463 298.501 153.909L298.814 153.057L294.779 142.091H296.598L299.609 150.784H299.723L302.734 142.091H304.552L299.922 154.591C299.713 155.154 299.455 155.621 299.147 155.99C298.84 156.364 298.482 156.641 298.075 156.821C297.672 157.001 297.218 157.091 296.711 157.091ZM314.492 144.534L312.986 144.96C312.891 144.709 312.752 144.465 312.567 144.229C312.387 143.987 312.141 143.788 311.828 143.632C311.516 143.476 311.116 143.398 310.628 143.398C309.961 143.398 309.404 143.552 308.959 143.859C308.519 144.162 308.299 144.548 308.299 145.017C308.299 145.434 308.45 145.763 308.753 146.004C309.056 146.246 309.53 146.447 310.174 146.608L311.793 147.006C312.768 147.242 313.495 147.605 313.973 148.092C314.452 148.575 314.691 149.198 314.691 149.96C314.691 150.585 314.511 151.144 314.151 151.636C313.796 152.129 313.299 152.517 312.659 152.801C312.02 153.085 311.277 153.227 310.429 153.227C309.317 153.227 308.396 152.986 307.667 152.503C306.937 152.02 306.476 151.314 306.282 150.386L307.873 149.989C308.024 150.576 308.31 151.016 308.732 151.31C309.158 151.603 309.714 151.75 310.401 151.75C311.182 151.75 311.802 151.584 312.262 151.253C312.726 150.917 312.958 150.514 312.958 150.045C312.958 149.667 312.825 149.349 312.56 149.094C312.295 148.833 311.888 148.639 311.338 148.511L309.52 148.085C308.521 147.848 307.787 147.482 307.319 146.984C306.855 146.482 306.623 145.855 306.623 145.102C306.623 144.487 306.795 143.942 307.141 143.469C307.491 142.995 307.967 142.624 308.569 142.354C309.175 142.084 309.861 141.949 310.628 141.949C311.708 141.949 312.555 142.186 313.171 142.659C313.791 143.133 314.231 143.758 314.492 144.534ZM322.839 153V142.091H324.515V153H322.839ZM323.691 140.273C323.364 140.273 323.083 140.161 322.846 139.939C322.614 139.716 322.498 139.449 322.498 139.136C322.498 138.824 322.614 138.556 322.846 138.334C323.083 138.111 323.364 138 323.691 138C324.018 138 324.297 138.111 324.529 138.334C324.766 138.556 324.884 138.824 324.884 139.136C324.884 139.449 324.766 139.716 324.529 139.939C324.297 140.161 324.018 140.273 323.691 140.273ZM327.585 153V142.091H329.204V143.795H329.346C329.574 143.213 329.94 142.761 330.447 142.439C330.954 142.112 331.562 141.949 332.272 141.949C332.992 141.949 333.591 142.112 334.069 142.439C334.552 142.761 334.929 143.213 335.199 143.795H335.312C335.592 143.232 336.011 142.785 336.569 142.453C337.128 142.117 337.798 141.949 338.579 141.949C339.555 141.949 340.352 142.254 340.973 142.865C341.593 143.471 341.903 144.416 341.903 145.699V153H340.227V145.699C340.227 144.894 340.007 144.319 339.566 143.973C339.126 143.627 338.608 143.455 338.011 143.455C337.244 143.455 336.65 143.687 336.228 144.151C335.807 144.61 335.596 145.192 335.596 145.898V153H333.892V145.528C333.892 144.908 333.69 144.409 333.288 144.03C332.886 143.646 332.367 143.455 331.733 143.455C331.297 143.455 330.89 143.571 330.511 143.803C330.137 144.035 329.834 144.357 329.602 144.768C329.375 145.176 329.261 145.647 329.261 146.182V153H327.585ZM348.178 153.256C347.487 153.256 346.859 153.125 346.296 152.865C345.732 152.6 345.285 152.219 344.953 151.722C344.622 151.22 344.456 150.614 344.456 149.903C344.456 149.278 344.579 148.772 344.826 148.384C345.072 147.991 345.401 147.683 345.813 147.46C346.225 147.238 346.679 147.072 347.176 146.963C347.678 146.849 348.183 146.759 348.689 146.693C349.352 146.608 349.89 146.544 350.301 146.501C350.718 146.454 351.021 146.376 351.211 146.267C351.405 146.158 351.502 145.969 351.502 145.699V145.642C351.502 144.941 351.31 144.397 350.926 144.009C350.548 143.62 349.972 143.426 349.201 143.426C348.4 143.426 347.773 143.601 347.319 143.952C346.864 144.302 346.544 144.676 346.36 145.074L344.769 144.506C345.053 143.843 345.432 143.327 345.905 142.957C346.383 142.583 346.904 142.323 347.468 142.176C348.036 142.025 348.595 141.949 349.144 141.949C349.494 141.949 349.897 141.991 350.351 142.077C350.81 142.157 351.253 142.325 351.679 142.581C352.11 142.837 352.468 143.223 352.752 143.739C353.036 144.255 353.178 144.946 353.178 145.812V153H351.502V151.523H351.417C351.303 151.759 351.114 152.013 350.848 152.283C350.583 152.553 350.23 152.782 349.79 152.972C349.35 153.161 348.812 153.256 348.178 153.256ZM348.434 151.75C349.096 151.75 349.655 151.62 350.11 151.359C350.569 151.099 350.915 150.763 351.147 150.351C351.383 149.939 351.502 149.506 351.502 149.051V147.517C351.431 147.602 351.275 147.68 351.033 147.751C350.796 147.818 350.522 147.877 350.209 147.929C349.901 147.976 349.601 148.019 349.307 148.057C349.018 148.09 348.784 148.118 348.604 148.142C348.168 148.199 347.761 148.291 347.382 148.419C347.008 148.542 346.705 148.729 346.473 148.98C346.246 149.226 346.132 149.562 346.132 149.989C346.132 150.571 346.348 151.011 346.779 151.31C347.214 151.603 347.766 151.75 348.434 151.75ZM360.641 157.318C359.831 157.318 359.135 157.214 358.553 157.006C357.97 156.802 357.485 156.532 357.097 156.196C356.713 155.865 356.408 155.509 356.18 155.131L357.516 154.193C357.667 154.392 357.859 154.619 358.091 154.875C358.323 155.135 358.64 155.36 359.043 155.55C359.45 155.744 359.982 155.841 360.641 155.841C361.521 155.841 362.248 155.628 362.821 155.202C363.394 154.776 363.68 154.108 363.68 153.199V150.983H363.538C363.415 151.182 363.24 151.428 363.013 151.722C362.79 152.01 362.468 152.268 362.047 152.496C361.63 152.718 361.067 152.83 360.357 152.83C359.476 152.83 358.685 152.621 357.984 152.205C357.288 151.788 356.737 151.182 356.33 150.386C355.927 149.591 355.726 148.625 355.726 147.489C355.726 146.371 355.922 145.398 356.315 144.57C356.708 143.736 357.255 143.092 357.956 142.638C358.657 142.179 359.466 141.949 360.385 141.949C361.095 141.949 361.659 142.067 362.075 142.304C362.497 142.536 362.819 142.801 363.041 143.099C363.268 143.393 363.444 143.634 363.567 143.824H363.737V142.091H365.357V153.312C365.357 154.25 365.143 155.012 364.717 155.599C364.296 156.191 363.728 156.625 363.013 156.899C362.303 157.179 361.512 157.318 360.641 157.318ZM360.584 151.324C361.256 151.324 361.824 151.17 362.288 150.862C362.752 150.554 363.105 150.112 363.347 149.534C363.588 148.956 363.709 148.265 363.709 147.46C363.709 146.674 363.59 145.981 363.354 145.379C363.117 144.778 362.767 144.307 362.303 143.966C361.839 143.625 361.266 143.455 360.584 143.455C359.874 143.455 359.282 143.634 358.808 143.994C358.339 144.354 357.987 144.837 357.75 145.443C357.518 146.049 357.402 146.722 357.402 147.46C357.402 148.218 357.52 148.888 357.757 149.47C357.999 150.048 358.354 150.502 358.822 150.834C359.296 151.161 359.883 151.324 360.584 151.324ZM368.425 153V142.091H370.101V153H368.425ZM369.277 140.273C368.95 140.273 368.669 140.161 368.432 139.939C368.2 139.716 368.084 139.449 368.084 139.136C368.084 138.824 368.2 138.556 368.432 138.334C368.669 138.111 368.95 138 369.277 138C369.604 138 369.883 138.111 370.115 138.334C370.352 138.556 370.47 138.824 370.47 139.136C370.47 139.449 370.352 139.716 370.115 139.939C369.883 140.161 369.604 140.273 369.277 140.273ZM374.847 146.438V153H373.171V142.091H374.79V143.795H374.932C375.188 143.241 375.576 142.796 376.097 142.46C376.618 142.119 377.29 141.949 378.114 141.949C378.853 141.949 379.499 142.1 380.053 142.403C380.607 142.702 381.038 143.156 381.346 143.767C381.653 144.373 381.807 145.14 381.807 146.068V153H380.131V146.182C380.131 145.325 379.908 144.657 379.463 144.179C379.018 143.696 378.408 143.455 377.631 143.455C377.096 143.455 376.618 143.571 376.196 143.803C375.78 144.035 375.451 144.373 375.209 144.818C374.968 145.263 374.847 145.803 374.847 146.438ZM389.444 153.227C388.393 153.227 387.486 152.995 386.724 152.531C385.966 152.062 385.381 151.409 384.969 150.571C384.562 149.728 384.359 148.748 384.359 147.631C384.359 146.513 384.562 145.528 384.969 144.676C385.381 143.819 385.954 143.152 386.688 142.673C387.427 142.19 388.289 141.949 389.273 141.949C389.842 141.949 390.403 142.044 390.957 142.233C391.511 142.422 392.015 142.73 392.469 143.156C392.924 143.578 393.286 144.136 393.556 144.832C393.826 145.528 393.961 146.385 393.961 147.403V148.114H385.552V146.665H392.256C392.256 146.049 392.133 145.5 391.887 145.017C391.646 144.534 391.3 144.153 390.85 143.874C390.405 143.594 389.879 143.455 389.273 143.455C388.606 143.455 388.028 143.62 387.54 143.952C387.058 144.278 386.686 144.705 386.425 145.23C386.165 145.756 386.035 146.319 386.035 146.92V147.886C386.035 148.71 386.177 149.409 386.461 149.982C386.75 150.55 387.15 150.983 387.661 151.281C388.173 151.575 388.767 151.722 389.444 151.722C389.884 151.722 390.282 151.66 390.637 151.537C390.997 151.409 391.307 151.22 391.567 150.969C391.828 150.713 392.029 150.396 392.171 150.017L393.79 150.472C393.62 151.021 393.334 151.504 392.931 151.92C392.529 152.332 392.031 152.654 391.44 152.886C390.848 153.114 390.183 153.227 389.444 153.227ZM400.63 153.227C399.721 153.227 398.918 152.998 398.222 152.538C397.526 152.074 396.982 151.421 396.589 150.578C396.196 149.731 395.999 148.729 395.999 147.574C395.999 146.428 396.196 145.434 396.589 144.591C396.982 143.748 397.529 143.097 398.229 142.638C398.93 142.179 399.74 141.949 400.658 141.949C401.369 141.949 401.93 142.067 402.342 142.304C402.758 142.536 403.076 142.801 403.293 143.099C403.516 143.393 403.689 143.634 403.812 143.824H403.954V138.455H405.63V153H404.011V151.324H403.812C403.689 151.523 403.513 151.774 403.286 152.077C403.059 152.375 402.735 152.643 402.313 152.879C401.892 153.111 401.331 153.227 400.63 153.227ZM400.857 151.722C401.53 151.722 402.098 151.546 402.562 151.196C403.026 150.841 403.379 150.351 403.62 149.726C403.862 149.096 403.982 148.369 403.982 147.545C403.982 146.731 403.864 146.018 403.627 145.408C403.39 144.792 403.04 144.314 402.576 143.973C402.112 143.627 401.539 143.455 400.857 143.455C400.147 143.455 399.555 143.637 399.082 144.001C398.613 144.361 398.26 144.851 398.023 145.472C397.791 146.087 397.675 146.778 397.675 147.545C397.675 148.322 397.794 149.027 398.031 149.662C398.272 150.292 398.627 150.794 399.096 151.168C399.569 151.537 400.156 151.722 400.857 151.722ZM410.154 153.114C409.804 153.114 409.503 152.988 409.252 152.737C409.001 152.486 408.876 152.186 408.876 151.835C408.876 151.485 409.001 151.184 409.252 150.933C409.503 150.682 409.804 150.557 410.154 150.557C410.504 150.557 410.805 150.682 411.056 150.933C411.307 151.184 411.433 151.485 411.433 151.835C411.433 152.067 411.373 152.28 411.255 152.474C411.141 152.669 410.987 152.825 410.793 152.943C410.604 153.057 410.391 153.114 410.154 153.114Z" fill="#121212"/>
</svg>
